HIERARCHY
ROOT Hips
{
	OFFSET 0.000000 8.830580 0.000000
	CHANNELS 6 Xposition Yposition Zposition Zrotation Yrotation Xrotation 
	JOINT Spine
	{
		OFFSET 0.000000 0.010000 0.000000
		CHANNELS 3 Zrotation Yrotation Xrotation
		JOINT Spine1
		{
			OFFSET 0.000000 2.459130 0.000000
			CHANNELS 3 Zrotation Yrotation Xrotation
			JOINT Neck
			{
				OFFSET 0.000000 2.484630 0.000000
				CHANNELS 3 Zrotation Yrotation Xrotation
				JOINT Head_virtual
				{
					OFFSET 0.000000 0.000000 0.000000
					CHANNELS 3 Zrotation Yrotation Xrotation
					JOINT Head
					{
						OFFSET 0.000000 0.927525 0.000000
						CHANNELS 3 Zrotation Yrotation Xrotation
						End Site
						{
							OFFSET 0.000000 0.000000 0.000000
						}
					}
				}
				JOINT LeftUpArm_virtual
				{
					OFFSET 0.000000 0.000000 0.000000
					CHANNELS 3 Zrotation Yrotation Xrotation
					JOINT LeftUpArm
					{
						OFFSET 1.248820 0.000000 0.000000
						CHANNELS 3 Zrotation Yrotation Xrotation
						JOINT LeftForeArm
						{
							OFFSET 2.597580 0.000000 0.000000
							CHANNELS 3 Zrotation Yrotation Xrotation
							JOINT LeftHand
							{
								OFFSET 2.455420 0.000000 0.000000
								CHANNELS 3 Zrotation Yrotation Xrotation
								End Site
								{
									OFFSET 0.000000 0.000000 0.000000
								}
							}
						}
					}
				}
				JOINT RightUpArm_virtual
				{
					OFFSET -0.000000 -0.000000 -0.000000
					CHANNELS 3 Zrotation Yrotation Xrotation
					JOINT RightUpArm
					{
						OFFSET -1.248820 -0.000000 -0.000000
						CHANNELS 3 Zrotation Yrotation Xrotation
						JOINT RightForeArm
						{
							OFFSET -2.597580 -0.000000 -0.000000
							CHANNELS 3 Zrotation Yrotation Xrotation
							JOINT RightHand
							{
								OFFSET -2.455420 -0.000000 -0.000000
								CHANNELS 3 Zrotation Yrotation Xrotation
								End Site
								{
									OFFSET 0.000000 0.000000 0.000000
								}
							}
						}
					}
				}
			}
		}
	}
	JOINT LeftUpLeg
	{
		OFFSET 1.271939 0.000000 0.000000
		CHANNELS 3 Zrotation Yrotation Xrotation
		JOINT LeftLowLeg
		{
			OFFSET 0.000000 -4.342910 0.000000
			CHANNELS 3 Zrotation Yrotation Xrotation
			JOINT LeftFoot
			{
				OFFSET 0.000000 -4.487670 0.000000
				CHANNELS 3 Zrotation Yrotation Xrotation
				JOINT LeftToeBase
				{
					OFFSET 0.000000 0.000000 1.515070
					CHANNELS 3 Zrotation Yrotation Xrotation
					End Site
					{
						OFFSET 0.000000 0.000000 0.000000
					}
				}
			}
		}
	}
	JOINT RightUpLeg
	{
		OFFSET -1.271939 0.000000 0.000000
		CHANNELS 3 Zrotation Yrotation Xrotation
		JOINT RightLowLeg
		{
			OFFSET 0.000000 -4.342910 0.000000
			CHANNELS 3 Zrotation Yrotation Xrotation
			JOINT RightFoot
			{
				OFFSET 0.000000 -4.487670 0.000000
				CHANNELS 3 Zrotation Yrotation Xrotation
				JOINT RightToeBase
				{
					OFFSET 0.000000 0.000000 1.515070
					CHANNELS 3 Zrotation Yrotation Xrotation
					End Site
					{
						OFFSET 0.000000 0.000000 0.000000
					}
				}
			}
		}
	}
}
MOTION
Frames: 7
Frame Time: 0.041667
-17.119587 6.725095 40.581129 -178.748643 0.445791 -165.787061 12.461050 3.280394 12.480679 -7.369945 -0.726333 42.472613 0.000000 0.000000 0.000000 16.363608 13.156692 11.381935 -3.360002 -10.598664 -85.335352 -22.745800 -11.896600 -6.696480 -16.351400 -23.630899 -3.431870 0.000000 -33.029598 0.000000 2.667990 6.276780 -10.907500 26.903601 9.269640 -3.302090 27.020000 17.705999 -5.214500 0.000000 49.687302 0.000000 -23.897100 6.294460 -3.066960 -4.720498 8.862981 -75.980634 0.000000 0.000000 71.965500 -3.984122 5.353285 0.680468 0.000000 0.000000 -10.743230 -4.306412 -5.151227 -75.864249 0.000000 0.000000 77.344002 23.863272 -15.207493 -1.984934 0.000000 0.000000 -13.151770 
-17.121892 6.630126 40.634463 -178.384684 0.359228 -168.076263 12.591054 3.170068 11.972492 -7.811918 -0.582746 44.234884 0.000000 0.000000 0.000000 16.213770 13.367126 10.290727 -3.371821 -10.008386 -84.624596 -23.067600 -11.262400 -6.208390 -16.418400 -23.695101 -5.361920 0.000000 -34.524399 0.000000 2.615030 5.106710 -10.846700 27.150900 9.452760 -3.372910 27.681801 18.136000 -4.266700 0.000000 47.766399 0.000000 -22.494301 5.710440 -3.935310 -4.051020 8.940277 -75.146950 0.000000 0.000000 73.481102 -3.907129 5.374217 0.846622 0.000000 0.000000 -10.834290 -4.211513 -5.038187 -74.781037 0.000000 0.000000 78.513901 24.000934 -15.116624 -1.742825 0.000000 0.000000 -13.555670 
-17.128879 6.546739 40.681114 -178.070946 0.413634 -170.657847 12.784330 3.097079 11.552506 -8.364976 -0.404821 46.199592 0.000000 0.000000 0.000000 16.115686 13.380863 8.857864 -3.538557 -9.375457 -83.519672 -23.073000 -10.795700 -4.782770 -16.444201 -23.731899 -7.981480 0.000000 -36.708199 0.000000 4.098470 4.014070 -10.113800 27.313200 9.604970 -2.365190 28.028299 19.182699 -4.189110 0.000000 45.715099 0.000000 -20.963301 5.161970 -4.339970 -3.305571 8.969274 -73.806832 0.000000 0.000000 74.810600 -3.954487 5.499003 0.947059 0.000000 0.000000 -10.868930 -4.228312 -4.835521 -73.254459 0.000000 0.000000 79.490196 24.172886 -14.953746 -1.493593 0.000000 0.000000 -13.920990 
-17.138675 6.480822 40.724657 -177.771878 0.585673 -172.959563 13.155561 3.115453 10.762196 -9.187568 -0.081444 48.445164 0.000000 0.000000 0.000000 15.467131 13.869588 7.076870 -3.052913 -8.686183 -82.421432 -21.441601 -10.603600 -7.283640 -20.098900 -22.127600 -7.731910 0.000000 -39.697399 0.000000 5.923750 3.156320 -8.559630 27.419201 9.432410 -2.765940 29.091101 20.074301 -2.940330 0.000000 43.627399 0.000000 -19.546801 4.865980 -4.648020 -2.692293 9.110504 -72.524834 0.000000 0.000000 75.839699 -3.961475 5.594686 1.120940 0.000000 0.000000 -10.951530 -4.267557 -4.536739 -71.767527 0.000000 0.000000 80.109100 24.594772 -14.724530 -1.271670 0.000000 0.000000 -14.183806 
-17.147607 6.436371 40.754164 -177.608674 0.628104 -175.012542 13.219177 3.006111 9.914460 -9.510203 0.136511 49.986095 0.000000 0.000000 0.000000 14.989278 14.241371 6.806609 -2.629460 -8.651837 -82.574929 -23.414200 -9.774850 -6.884110 -18.983000 -22.662701 -8.772960 0.000000 -42.128799 0.000000 7.140730 2.336260 -9.296660 27.681999 9.911680 -4.555950 30.264400 18.862600 -0.906812 0.000000 41.795898 0.000000 -17.702801 4.957620 -4.194720 -2.205208 9.081843 -71.173835 0.000000 0.000000 76.529701 -4.029127 5.646971 1.363619 0.000000 0.000000 -11.075410 -4.335567 -4.482545 -70.307878 0.000000 0.000000 80.619301 24.941381 -14.487670 -0.979964 0.000000 0.000000 -14.587963 
-17.156109 6.388523 40.780789 -177.478773 0.777945 -177.482032 12.976769 2.781018 9.278874 -9.477833 0.301159 51.529896 0.000000 0.000000 0.000000 13.742867 14.933795 6.135333 -1.683579 -8.781250 -82.105735 -21.835300 -9.761410 -9.354890 -23.436501 -20.210501 -7.803750 0.000000 -45.798000 0.000000 10.006300 2.155030 -10.100500 27.591000 9.473080 -2.872840 30.507200 20.477600 -0.745619 0.000000 39.726101 0.000000 -16.849300 4.295970 -4.234890 -1.645458 9.128678 -69.416039 0.000000 0.000000 77.316902 -4.031097 5.664315 1.570771 0.000000 0.000000 -11.261980 -4.475971 -4.328796 -68.560134 0.000000 0.000000 81.221703 25.164477 -14.361228 -0.474426 0.000000 0.000000 -14.951480 
-17.162377 6.355920 40.802429 -177.342222 1.020586 -179.720185 12.457863 2.462325 8.922675 -8.807681 0.368451 52.070520 0.000000 0.000000 0.000000 12.272130 15.661573 6.811951 -0.671231 -9.668706 -82.873051 -23.784201 -9.239190 -8.350720 -23.121901 -20.105600 -8.819320 0.000000 -48.742401 0.000000 11.660000 1.957690 -10.657000 27.162300 9.658950 -3.180930 31.495001 19.512300 0.614774 0.000000 38.304298 0.000000 -15.755200 4.030630 -2.581690 -1.138683 9.324319 -67.734253 0.000000 0.000000 77.925903 -4.090612 5.621702 1.870600 0.000000 0.000000 -11.468450 -4.648819 -3.943710 -66.791198 0.000000 0.000000 81.564903 25.659201 -14.134973 -0.113847 0.000000 0.000000 -15.235652 
